<?xml version="1.0" encoding="iso-8859-1"?>
<!-- Uploaded to: SVG Repo, www.svgrepo.com, Generator: SVG Repo Mixer Tools -->
<svg version="1.1" id="Layer_1" xmlns="http://www.w3.org/2000/svg" xmlns:xlink="http://www.w3.org/1999/xlink" 
	 viewBox="0 0 512 512" xml:space="preserve">
<rect x="50.144" y="430.186" style="fill:#595E62;" width="411.711" height="73.897"/>
<polygon style="fill:#AFB6BB;" points="482.969,387.959 482.969,430.186 461.856,430.186 50.144,430.186 29.031,430.186 
	29.031,387.959 76.536,387.959 256,387.959 435.464,387.959 "/>
<polygon style="fill:#7E8488;" points="435.464,197.938 435.464,387.959 256,387.959 256,197.938 287.67,197.938 "/>
<polygon style="fill:#6C7175;" points="76.536,387.959 76.536,197.938 219.052,197.938 256,197.938 256,387.959 "/>
<g>
	<polygon style="fill:#E7ECED;" points="435.464,387.959 435.464,197.938 504.082,197.938 504.082,387.959 482.969,387.959 	"/>
	<polygon style="fill:#E7ECED;" points="76.536,197.938 76.536,387.959 29.031,387.959 7.918,387.959 7.918,197.938 	"/>
</g>
<polygon style="fill:#AFB6BB;" points="287.67,155.711 287.67,197.938 256,197.938 219.052,197.938 219.052,155.711 "/>
<polygon style="fill:#00ABD5;" points="393.237,7.918 393.237,155.711 287.67,155.711 219.052,155.711 113.485,155.711 
	113.485,7.918 "/>
<path style="fill:#0090C8;" d="M158.221,7.918h-44.736v147.794h105.567h68.619h105.567v-33.984
	C288.632,111.438,201.3,67.665,158.221,7.918z"/>
<rect x="29.031" y="387.959" style="fill:#A0A7AB;" width="226.969" height="42.227"/>
<rect x="50.144" y="430.186" style="fill:#4A4F53;" width="205.856" height="73.897"/>
<g>
	<polygon style="fill:#FFFFFF;" points="158.351,76.536 142.515,76.536 142.515,36.948 208.495,36.948 208.495,52.784 
		158.351,52.784 	"/>
	<rect x="142.515" y="92.371" style="fill:#FFFFFF;" width="15.835" height="21.113"/>
	<rect x="150.433" y="459.217" style="fill:#FFFFFF;" width="211.134" height="15.835"/>
	<rect x="382.68" y="459.217" style="fill:#FFFFFF;" width="21.113" height="15.835"/>
	<rect x="108.206" y="459.217" style="fill:#FFFFFF;" width="21.113" height="15.835"/>
</g>
<path d="M512,190.021H295.588v-26.392h105.567V0H105.567v163.629h105.567v26.392H0v205.856h21.113v42.227h21.113V512h427.546
	v-73.897h21.113v-42.227H512V190.021z M263.918,380.041V205.856h163.629v174.186H263.918z M84.454,380.041V205.856h163.629v174.186
	H84.454z M121.402,15.835H385.32v131.959H121.402V15.835z M226.969,163.629h52.784v26.392h-52.784V163.629z M15.835,380.041V205.856
	h52.784v174.186H15.835z M453.938,496.165H58.062v-58.062h395.876V496.165z M475.052,422.268H36.948v-26.392h438.103V422.268z
	 M496.165,380.041h-52.784V205.856h52.784V380.041z"/>
<rect x="29.031" y="221.691" width="26.392" height="15.835"/>
<rect x="29.031" y="253.361" width="26.392" height="15.835"/>
<rect x="29.031" y="285.031" width="26.392" height="15.835"/>
<rect x="29.031" y="316.701" width="26.392" height="15.835"/>
<rect x="29.031" y="348.371" width="26.392" height="15.835"/>
<rect x="456.577" y="221.691" width="26.392" height="15.835"/>
<rect x="456.577" y="253.361" width="26.392" height="15.835"/>
<rect x="456.577" y="285.031" width="26.392" height="15.835"/>
<rect x="456.577" y="316.701" width="26.392" height="15.835"/>
<rect x="456.577" y="348.371" width="26.392" height="15.835"/>
<g>
	<rect x="102.928" y="343.093" style="fill:#FFFFFF;" width="126.68" height="15.835"/>
	<rect x="102.928" y="306.144" style="fill:#FFFFFF;" width="31.67" height="15.835"/>
	<rect x="197.938" y="306.144" style="fill:#FFFFFF;" width="31.67" height="15.835"/>
	<rect x="145.155" y="306.144" style="fill:#FFFFFF;" width="42.227" height="15.835"/>
	<rect x="102.928" y="269.196" style="fill:#FFFFFF;" width="31.67" height="15.835"/>
	<rect x="197.938" y="269.196" style="fill:#FFFFFF;" width="31.67" height="15.835"/>
	<rect x="145.155" y="269.196" style="fill:#FFFFFF;" width="42.227" height="15.835"/>
	<rect x="102.928" y="232.247" style="fill:#FFFFFF;" width="21.113" height="15.835"/>
	<rect x="208.495" y="232.247" style="fill:#FFFFFF;" width="21.113" height="15.835"/>
	<rect x="176.825" y="232.247" style="fill:#FFFFFF;" width="21.113" height="15.835"/>
	<rect x="139.876" y="232.247" style="fill:#FFFFFF;" width="21.113" height="15.835"/>
	<rect x="282.392" y="343.093" style="fill:#FFFFFF;" width="126.68" height="15.835"/>
	<rect x="282.392" y="306.144" style="fill:#FFFFFF;" width="31.67" height="15.835"/>
	<rect x="377.402" y="306.144" style="fill:#FFFFFF;" width="31.67" height="15.835"/>
	<rect x="324.619" y="306.144" style="fill:#FFFFFF;" width="42.227" height="15.835"/>
	<rect x="282.392" y="269.196" style="fill:#FFFFFF;" width="31.67" height="15.835"/>
	<rect x="377.402" y="269.196" style="fill:#FFFFFF;" width="31.67" height="15.835"/>
	<rect x="324.619" y="269.196" style="fill:#FFFFFF;" width="42.227" height="15.835"/>
	<rect x="282.392" y="232.247" style="fill:#FFFFFF;" width="21.113" height="15.835"/>
	<rect x="387.959" y="232.247" style="fill:#FFFFFF;" width="21.113" height="15.835"/>
	<rect x="356.289" y="232.247" style="fill:#FFFFFF;" width="21.113" height="15.835"/>
	<rect x="319.34" y="232.247" style="fill:#FFFFFF;" width="21.113" height="15.835"/>
</g>
</svg>